<svg width="19" height="19" viewBox="0 0 19 19" fill="none" xmlns="http://www.w3.org/2000/svg">
<path d="M9.51512 0.23584C7.04548 0.23584 6.73555 0.246638 5.76558 0.290779C4.79751 0.335109 4.13671 0.48837 3.55852 0.713242C2.96044 0.945501 2.4531 1.25619 1.94765 1.76182C1.44183 2.26726 1.13114 2.77459 0.898116 3.37248C0.672673 3.95086 0.519221 4.61183 0.475649 5.57952C0.432265 6.54948 0.420898 6.8596 0.420898 9.32921C0.420898 11.7988 0.431887 12.1078 0.475838 13.0778C0.520358 14.0458 0.673621 14.7066 0.898305 15.2848C1.13076 15.8829 1.44145 16.3902 1.94708 16.8956C2.45234 17.4015 2.95968 17.7129 3.55738 17.9452C4.13596 18.17 4.79694 18.3233 5.76482 18.3676C6.73479 18.4118 7.04454 18.4226 9.51398 18.4226C11.9838 18.4226 12.2928 18.4118 13.2628 18.3676C14.2308 18.3233 14.8924 18.17 15.471 17.9452C16.0689 17.7129 16.5754 17.4015 17.0807 16.8956C17.5865 16.3902 17.8972 15.8829 18.1302 15.285C18.3538 14.7066 18.5072 14.0456 18.5527 13.0779C18.5963 12.108 18.6076 11.7988 18.6076 9.32921C18.6076 6.8596 18.5963 6.54967 18.5527 5.57971C18.5072 4.61164 18.3538 3.95086 18.1302 3.37267C17.8972 2.77459 17.5865 2.26726 17.0807 1.76182C16.5749 1.256 16.069 0.945312 15.4704 0.713242C14.8907 0.48837 14.2295 0.335109 13.2614 0.290779C12.2915 0.246638 11.9827 0.23584 9.51228 0.23584H9.51512ZM8.69936 1.87454C8.94147 1.87416 9.21162 1.87454 9.51512 1.87454C11.9431 1.87454 12.2308 1.88325 13.1896 1.92683C14.0762 1.96737 14.5574 2.11551 14.878 2.23998C15.3023 2.4048 15.6049 2.60182 15.923 2.92009C16.2412 3.23836 16.4383 3.54147 16.6035 3.96583C16.7279 4.28599 16.8763 4.76718 16.9166 5.65378C16.9602 6.61237 16.9697 6.90033 16.9697 9.32712C16.9697 11.7539 16.9602 12.0419 16.9166 13.0005C16.8761 13.8871 16.7279 14.3683 16.6035 14.6884C16.4387 15.1128 16.2412 15.4149 15.923 15.733C15.6047 16.0513 15.3025 16.2483 14.878 16.4131C14.5578 16.5382 14.0762 16.6859 13.1896 16.7265C12.231 16.77 11.9431 16.7795 9.51512 16.7795C7.08697 16.7795 6.7992 16.77 5.8406 16.7265C4.95399 16.6856 4.47279 16.5374 4.15206 16.4129C3.7277 16.2481 3.42458 16.0511 3.10631 15.7328C2.78804 15.4146 2.59102 15.1122 2.42582 14.6877C2.30135 14.3675 2.15301 13.8863 2.11266 12.9997C2.06909 12.0411 2.06037 11.7532 2.06037 9.32485C2.06037 6.89654 2.06909 6.6101 2.11266 5.65151C2.1532 4.7649 2.30135 4.28371 2.42582 3.96317C2.59064 3.53882 2.78804 3.2357 3.10631 2.91744C3.42458 2.59917 3.7277 2.40214 4.15206 2.23695C4.4726 2.11191 4.95399 1.96415 5.8406 1.92342C6.67947 1.88553 7.00456 1.87416 8.69936 1.87227V1.87454ZM14.3691 3.38442C13.7667 3.38442 13.2779 3.87262 13.2779 4.47524C13.2779 5.07768 13.7667 5.56645 14.3691 5.56645C14.9716 5.56645 15.4603 5.07768 15.4603 4.47524C15.4603 3.87281 14.9716 3.38404 14.3691 3.38404V3.38442ZM9.51512 4.65938C6.93617 4.65938 4.84525 6.75029 4.84525 9.32921C4.84525 11.9081 6.93617 13.9981 9.51512 13.9981C12.0941 13.9981 14.1842 11.9081 14.1842 9.32921C14.1842 6.75029 12.0939 4.65938 9.51493 4.65938H9.51512ZM9.51512 6.29808C11.1891 6.29808 12.5463 7.65508 12.5463 9.32921C12.5463 11.0031 11.1891 12.3603 9.51512 12.3603C7.84097 12.3603 6.48396 11.0031 6.48396 9.32921C6.48396 7.65508 7.84097 6.29808 9.51512 6.29808Z" fill="#3D8361"/>
</svg>
