<svg width="811" height="52" viewBox="0 0 811 52" fill="none" xmlns="http://www.w3.org/2000/svg">
<path d="M9.824 37.384C8.18133 37.384 6.73067 37.1067 5.472 36.552C4.21333 35.976 3.22133 35.1653 2.496 34.12C1.77067 33.0533 1.39733 31.7627 1.376 30.248H5.696C5.73867 31.2933 6.112 32.1787 6.816 32.904C7.54133 33.608 8.53333 33.96 9.792 33.96C10.88 33.96 11.744 33.704 12.384 33.192C13.024 32.6587 13.344 31.9547 13.344 31.08C13.344 30.1627 13.056 29.448 12.48 28.936C11.9253 28.424 11.1787 28.008 10.24 27.688C9.30133 27.368 8.29867 27.0267 7.232 26.664C5.504 26.0667 4.18133 25.2987 3.264 24.36C2.368 23.4213 1.92 22.1733 1.92 20.616C1.89867 19.2933 2.208 18.1627 2.848 17.224C3.50933 16.264 4.40533 15.528 5.536 15.016C6.66667 14.4827 7.968 14.216 9.44 14.216C10.9333 14.216 12.2453 14.4827 13.376 15.016C14.528 15.5493 15.424 16.296 16.064 17.256C16.7253 18.216 17.0773 19.3573 17.12 20.68H12.736C12.7147 19.8907 12.4053 19.1973 11.808 18.6C11.232 17.9813 10.4213 17.672 9.376 17.672C8.48 17.6507 7.72267 17.8747 7.104 18.344C6.50667 18.792 6.208 19.4533 6.208 20.328C6.208 21.0747 6.44267 21.672 6.912 22.12C7.38133 22.5467 8.02133 22.9093 8.832 23.208C9.64267 23.5067 10.5707 23.8267 11.616 24.168C12.7253 24.552 13.7387 25 14.656 25.512C15.5733 26.024 16.3093 26.7067 16.864 27.56C17.4187 28.392 17.696 29.4693 17.696 30.792C17.696 31.9653 17.3973 33.0533 16.8 34.056C16.2027 35.0587 15.3173 35.8693 14.144 36.488C12.9707 37.0853 11.5307 37.384 9.824 37.384ZM20.3098 37V14.6H27.9578C30.5818 14.6 32.7364 15.0693 34.4218 16.008C36.1284 16.9253 37.3871 18.2267 38.1978 19.912C39.0298 21.576 39.4458 23.5387 39.4458 25.8C39.4458 28.0613 39.0298 30.0347 38.1978 31.72C37.3871 33.384 36.1284 34.6853 34.4218 35.624C32.7364 36.5413 30.5818 37 27.9578 37H20.3098ZM24.4058 33.48H27.7658C29.6431 33.48 31.1258 33.1813 32.2138 32.584C33.3018 31.9653 34.0804 31.0907 34.5498 29.96C35.0191 28.808 35.2538 27.4213 35.2538 25.8C35.2538 24.2 35.0191 22.824 34.5498 21.672C34.0804 20.52 33.3018 19.6347 32.2138 19.016C31.1258 18.3973 29.6431 18.088 27.7658 18.088H24.4058V33.48ZM42.0998 37V14.6H56.7238V17.896H46.1958V24.04H55.7638V27.24H46.1958V33.704H56.7238V37H42.0998ZM57.9117 40.712L59.7357 32.744H63.7037L60.5997 40.712H57.9117ZM82.543 37.384C80.431 37.384 78.5857 36.904 77.007 35.944C75.4283 34.984 74.2017 33.6507 73.327 31.944C72.4523 30.216 72.015 28.2107 72.015 25.928C72.015 23.624 72.463 21.5973 73.359 19.848C74.2763 18.0773 75.567 16.7013 77.231 15.72C78.9163 14.7173 80.911 14.216 83.215 14.216C85.839 14.216 88.015 14.8453 89.743 16.104C91.471 17.3627 92.591 19.1013 93.103 21.32H88.527C88.1857 20.2747 87.567 19.464 86.671 18.888C85.775 18.2907 84.623 17.992 83.215 17.992C80.975 17.992 79.247 18.7067 78.031 20.136C76.815 21.544 76.207 23.4853 76.207 25.96C76.207 28.4347 76.8043 30.3547 77.999 31.72C79.215 33.064 80.8577 33.736 82.927 33.736C84.9537 33.736 86.479 33.192 87.503 32.104C88.5483 30.9947 89.1777 29.544 89.391 27.752H83.727V24.68H93.519V37H89.743L89.423 34.056C88.6977 35.1227 87.791 35.944 86.703 36.52C85.615 37.096 84.2283 37.384 82.543 37.384ZM104.061 37.384C102.525 37.384 101.138 37.032 99.901 36.328C98.685 35.624 97.7143 34.6533 96.989 33.416C96.285 32.1573 95.933 30.7067 95.933 29.064C95.933 27.4213 96.2957 25.9813 97.021 24.744C97.7463 23.4853 98.717 22.504 99.933 21.8C101.17 21.096 102.557 20.744 104.093 20.744C105.608 20.744 106.973 21.096 108.189 21.8C109.426 22.504 110.397 23.4853 111.101 24.744C111.826 25.9813 112.189 27.4213 112.189 29.064C112.189 30.7067 111.826 32.1573 111.101 33.416C110.397 34.6533 109.426 35.624 108.189 36.328C106.952 37.032 105.576 37.384 104.061 37.384ZM104.061 33.832C105.128 33.832 106.056 33.4373 106.845 32.648C107.634 31.8373 108.029 30.6427 108.029 29.064C108.029 27.4853 107.634 26.3013 106.845 25.512C106.056 24.7013 105.138 24.296 104.093 24.296C103.005 24.296 102.066 24.7013 101.277 25.512C100.509 26.3013 100.125 27.4853 100.125 29.064C100.125 30.6427 100.509 31.8373 101.277 32.648C102.066 33.4373 102.994 33.832 104.061 33.832ZM122.507 37.384C120.971 37.384 119.585 37.032 118.347 36.328C117.131 35.624 116.161 34.6533 115.435 33.416C114.731 32.1573 114.379 30.7067 114.379 29.064C114.379 27.4213 114.742 25.9813 115.467 24.744C116.193 23.4853 117.163 22.504 118.379 21.8C119.617 21.096 121.003 20.744 122.539 20.744C124.054 20.744 125.419 21.096 126.635 21.8C127.873 22.504 128.843 23.4853 129.547 24.744C130.273 25.9813 130.635 27.4213 130.635 29.064C130.635 30.7067 130.273 32.1573 129.547 33.416C128.843 34.6533 127.873 35.624 126.635 36.328C125.398 37.032 124.022 37.384 122.507 37.384ZM122.507 33.832C123.574 33.832 124.502 33.4373 125.291 32.648C126.081 31.8373 126.475 30.6427 126.475 29.064C126.475 27.4853 126.081 26.3013 125.291 25.512C124.502 24.7013 123.585 24.296 122.539 24.296C121.451 24.296 120.513 24.7013 119.723 25.512C118.955 26.3013 118.571 27.4853 118.571 29.064C118.571 30.6427 118.955 31.8373 119.723 32.648C120.513 33.4373 121.441 33.832 122.507 33.832ZM139.058 32.264C138.29 32.264 137.575 32.1787 136.914 32.008L135.73 33.192C136.092 33.384 136.583 33.544 137.202 33.672C137.82 33.8 138.823 33.928 140.21 34.056C142.322 34.248 143.858 34.7493 144.818 35.56C145.778 36.3707 146.258 37.4907 146.258 38.92C146.258 39.8587 146.002 40.744 145.49 41.576C144.978 42.4293 144.188 43.112 143.122 43.624C142.055 44.1573 140.69 44.424 139.026 44.424C136.764 44.424 134.94 43.9973 133.554 43.144C132.167 42.312 131.474 41.0533 131.474 39.368C131.474 37.9387 132.167 36.7013 133.554 35.656C133.127 35.464 132.754 35.2613 132.434 35.048C132.135 34.8347 131.868 34.6107 131.634 34.376V33.64L134.418 30.696C133.18 29.608 132.562 28.2107 132.562 26.504C132.562 25.4373 132.818 24.4667 133.33 23.592C133.863 22.7173 134.61 22.024 135.57 21.512C136.53 21 137.692 20.744 139.058 20.744C139.954 20.744 140.786 20.872 141.554 21.128H147.57V23.624L144.85 23.816C145.276 24.6267 145.49 25.5227 145.49 26.504C145.49 27.5707 145.234 28.5413 144.722 29.416C144.21 30.2907 143.463 30.984 142.482 31.496C141.522 32.008 140.38 32.264 139.058 32.264ZM139.058 29.128C139.89 29.128 140.572 28.904 141.106 28.456C141.66 28.008 141.938 27.368 141.938 26.536C141.938 25.704 141.66 25.064 141.106 24.616C140.572 24.168 139.89 23.944 139.058 23.944C138.183 23.944 137.479 24.168 136.946 24.616C136.412 25.064 136.146 25.704 136.146 26.536C136.146 27.368 136.412 28.008 136.946 28.456C137.479 28.904 138.183 29.128 139.058 29.128ZM135.218 38.952C135.218 39.7413 135.58 40.328 136.306 40.712C137.052 41.1173 137.959 41.32 139.026 41.32C140.05 41.32 140.882 41.1067 141.522 40.68C142.162 40.2747 142.482 39.72 142.482 39.016C142.482 38.44 142.268 37.96 141.842 37.576C141.436 37.192 140.615 36.9573 139.378 36.872C138.503 36.808 137.692 36.712 136.946 36.584C136.327 36.9253 135.879 37.2987 135.602 37.704C135.346 38.1093 135.218 38.5253 135.218 38.952ZM149.596 37V13.96H153.692V37H149.596ZM164.629 37.384C163.029 37.384 161.611 37.0427 160.373 36.36C159.136 35.6773 158.165 34.7173 157.461 33.48C156.757 32.2427 156.405 30.8133 156.405 29.192C156.405 27.5493 156.747 26.088 157.429 24.808C158.133 23.528 159.093 22.536 160.309 21.832C161.547 21.1067 162.997 20.744 164.661 20.744C166.219 20.744 167.595 21.0853 168.789 21.768C169.984 22.4507 170.912 23.3893 171.573 24.584C172.256 25.7573 172.597 27.0693 172.597 28.52C172.597 28.7547 172.587 29 172.565 29.256C172.565 29.512 172.555 29.7787 172.533 30.056H160.469C160.555 31.2933 160.981 32.264 161.749 32.968C162.539 33.672 163.488 34.024 164.597 34.024C165.429 34.024 166.123 33.8427 166.677 33.48C167.253 33.096 167.68 32.6053 167.957 32.008H172.117C171.819 33.0107 171.317 33.928 170.613 34.76C169.931 35.5707 169.077 36.2107 168.053 36.68C167.051 37.1493 165.909 37.384 164.629 37.384ZM164.661 24.072C163.659 24.072 162.773 24.36 162.005 24.936C161.237 25.4907 160.747 26.344 160.533 27.496H168.437C168.373 26.4507 167.989 25.6187 167.285 25C166.581 24.3813 165.707 24.072 164.661 24.072Z" fill="#EDF1E4"/>
<rect x="206" width="52.9143" height="52" rx="8" fill="#002B23"/>
<path fill-rule="evenodd" clip-rule="evenodd" d="M248.914 42H242.151V30.8013C242.151 27.7309 240.951 26.0151 238.452 26.0151C235.733 26.0151 234.312 27.8007 234.312 30.8013V42H227.794V20.6667H234.312V23.5403C234.312 23.5403 236.271 20.0149 240.928 20.0149C245.582 20.0149 248.914 22.7781 248.914 28.4931V42ZM220.019 17.8732C217.799 17.8732 216 16.1106 216 13.9366C216 11.7627 217.799 10 220.019 10C222.239 10 224.037 11.7627 224.037 13.9366C224.037 16.1106 222.239 17.8732 220.019 17.8732ZM216.654 42H223.45V20.6667H216.654V42Z" fill="#EDF1E4"/>
<rect x="206.5" y="0.5" width="51.9143" height="51" rx="7.5" stroke="#EAEDDC" stroke-opacity="0.4"/>
<circle cx="190" cy="26" r="4" fill="#D9D9D9"/>
<line x1="287" y1="25" x2="811" y2="25" stroke="url(#paint0_linear_807_2626)" stroke-width="2"/>
<defs>
<linearGradient id="paint0_linear_807_2626" x1="365.215" y1="27.9988" x2="633.199" y2="27.9988" gradientUnits="userSpaceOnUse">
<stop stop-color="#D7CEA5"/>
<stop offset="1" stop-color="#D7CEA5" stop-opacity="0"/>
</linearGradient>
</defs>
</svg>
