<svg width="173" height="28" viewBox="0 0 173 28" fill="none" xmlns="http://www.w3.org/2000/svg">
<path fill-rule="evenodd" clip-rule="evenodd" d="M14.8522 0L18.3686 10.7234L29.75 10.6776L20.4967 17.2766L24.059 28L14.8519 21.3552L5.69097 28L9.20713 17.2766L0 10.6776L11.3814 10.7234L14.8522 0Z" fill="url(#paint0_linear_1571_19)"/>
<path fill-rule="evenodd" clip-rule="evenodd" d="M50.6022 0L54.1186 10.7234L65.5 10.6776L56.2467 17.2766L59.809 28L50.6019 21.3552L41.441 28L44.9571 17.2766L35.75 10.6776L47.1314 10.7234L50.6022 0Z" fill="url(#paint1_linear_1571_19)"/>
<path fill-rule="evenodd" clip-rule="evenodd" d="M86.3522 0L89.8686 10.7234L101.25 10.6776L91.9967 17.2766L95.559 28L86.3519 21.3552L77.191 28L80.7071 17.2766L71.5 10.6776L82.8814 10.7234L86.3522 0Z" fill="url(#paint2_linear_1571_19)"/>
<path fill-rule="evenodd" clip-rule="evenodd" d="M122.102 0L125.619 10.7234L137 10.6776L127.747 17.2766L131.309 28L122.102 21.3552L112.941 28L116.457 17.2766L107.25 10.6776L118.631 10.7234L122.102 0Z" fill="url(#paint3_linear_1571_19)"/>
<path fill-rule="evenodd" clip-rule="evenodd" d="M157.852 0L161.369 10.7234L172.75 10.6776L163.497 17.2766L167.059 28L157.852 21.3552L148.691 28L152.207 17.2766L143 10.6776L154.381 10.7234L157.852 0Z" fill="url(#paint4_linear_1571_19)"/>
<path d="M157.855 1.6141L160.894 10.8792L161.007 11.2248L161.371 11.2234L171.179 11.1839L163.206 16.8696L162.906 17.0839L163.022 17.4343L166.097 26.6888L158.145 20.9498L157.851 20.7381L157.558 20.9505L149.647 26.6888L152.682 17.4324L152.797 17.0839L152.498 16.8702L144.565 11.1839L154.379 11.2234L154.745 11.2248L154.857 10.8773L157.855 1.6141Z" stroke="#EAEDDC" stroke-opacity="0.4"/>
<defs>
<linearGradient id="paint0_linear_1571_19" x1="14.875" y1="0" x2="14.875" y2="31.0866" gradientUnits="userSpaceOnUse">
<stop stop-color="#EDF1E4"/>
<stop offset="1" stop-color="#D7CEA5"/>
</linearGradient>
<linearGradient id="paint1_linear_1571_19" x1="50.625" y1="0" x2="50.625" y2="31.0866" gradientUnits="userSpaceOnUse">
<stop stop-color="#EDF1E4"/>
<stop offset="1" stop-color="#D7CEA5"/>
</linearGradient>
<linearGradient id="paint2_linear_1571_19" x1="86.375" y1="0" x2="86.375" y2="31.0866" gradientUnits="userSpaceOnUse">
<stop stop-color="#EDF1E4"/>
<stop offset="1" stop-color="#D7CEA5"/>
</linearGradient>
<linearGradient id="paint3_linear_1571_19" x1="122.125" y1="0" x2="122.125" y2="31.0866" gradientUnits="userSpaceOnUse">
<stop stop-color="#EDF1E4"/>
<stop offset="1" stop-color="#D7CEA5"/>
</linearGradient>
<linearGradient id="paint4_linear_1571_19" x1="157.875" y1="0" x2="157.875" y2="65.1" gradientUnits="userSpaceOnUse">
<stop stop-color="#011F1A"/>
<stop offset="1" stop-color="#013229"/>
</linearGradient>
</defs>
</svg>
