<svg width="42" height="32" viewBox="0 0 42 32" fill="none" xmlns="http://www.w3.org/2000/svg">
<path d="M13.5367 32C29.063 32 37.5538 19.6899 37.5538 9.01504C37.5538 8.66544 37.5464 8.31744 37.5299 7.97088C39.182 6.82681 40.6078 5.41028 41.7405 3.78768C40.228 4.4312 38.6004 4.86432 36.893 5.0596C38.6358 4.05952 39.9737 2.47736 40.605 0.59144C38.948 1.53216 37.1352 2.19531 35.2449 2.55232C33.7045 0.98208 31.5116 0 29.0833 0C24.4218 0 20.6417 3.61776 20.6417 8.0772C20.6417 8.7112 20.7158 9.32768 20.8607 9.9192C13.8451 9.58136 7.62414 6.3668 3.46076 1.47888C2.7109 2.71171 2.31649 4.11284 2.3178 5.5392C2.3178 8.34192 3.80797 10.8161 6.07417 12.2636C4.73369 12.2244 3.42263 11.8779 2.25123 11.2532C2.24998 11.2871 2.24998 11.3202 2.24998 11.3564C2.24998 15.2686 5.15958 18.5351 9.02199 19.2753C8.29658 19.4643 7.54803 19.5599 6.79618 19.5595C6.25321 19.5595 5.72404 19.5084 5.20975 19.4139C6.2844 22.6237 9.40056 24.9594 13.0951 25.0247C10.206 27.1918 6.56663 28.4826 2.61115 28.4826C1.93827 28.4832 1.26594 28.4458 0.597656 28.3707C4.33346 30.6623 8.76936 31.9994 13.5371 31.9994" fill="#3D8361"/>
</svg>
